<?xml version="1.0" standalone="no"?>
<!DOCTYPE svg PUBLIC "-//W3C//DTD SVG 20010904//EN"
 "http://www.w3.org/TR/2001/REC-SVG-20010904/DTD/svg10.dtd">
<svg version="1.0" xmlns="http://www.w3.org/2000/svg"
 width="451.000000pt" height="447.000000pt" viewBox="0 0 451.000000 447.000000"
 preserveAspectRatio="xMidYMid meet">

<g transform="translate(0.000000,447.000000) scale(0.100000,-0.100000)"
fill="#000000" stroke="none">
<path d="M2208 4282 c-24 -10 -182 -160 -416 -394 -307 -306 -381 -385 -390
-417 -47 -155 59 -295 223 -294 33 0 77 7 98 16 22 9 91 69 161 137 67 66 126
120 129 120 13 0 7 -182 -9 -257 -22 -108 -49 -173 -105 -258 -55 -82 -134
-159 -224 -217 -33 -22 -159 -88 -280 -147 -347 -170 -494 -282 -618 -469 -63
-93 -98 -170 -257 -557 -72 -176 -176 -424 -230 -550 -119 -277 -135 -331
-127 -440 13 -190 120 -335 298 -408 51 -21 71 -22 409 -25 372 -4 368 -4 560
44 338 86 761 296 975 484 226 199 313 428 241 633 -30 85 -64 138 -166 257
-147 173 -187 301 -140 439 69 206 299 384 564 437 80 17 159 15 178 -4 7 -7
-12 -22 -62 -47 -214 -108 -301 -334 -204 -526 38 -76 152 -185 249 -237 44
-24 137 -75 207 -112 347 -186 532 -408 594 -710 19 -98 15 -246 -11 -345 -21
-82 -96 -232 -140 -279 l-36 -39 153 6 c218 7 299 37 401 146 83 89 117 180
117 319 0 102 -18 170 -87 320 -19 42 -89 202 -154 355 -300 696 -358 806
-519 980 -146 157 -323 274 -564 371 -118 47 -164 76 -241 147 -112 105 -196
259 -230 421 -15 68 -21 268 -9 268 3 0 61 -52 128 -117 66 -64 139 -124 161
-134 59 -27 144 -25 204 5 115 59 160 176 110 286 -27 60 -724 763 -784 791
-50 23 -109 24 -157 1z m329 -1119 c-3 -10 -5 -2 -5 17 0 19 2 27 5 18 2 -10
2 -26 0 -35z m-10 -115 c-3 -8 -6 -5 -6 6 -1 11 2 17 5 13 3 -3 4 -12 1 -19z
m-10 -50 c-3 -8 -6 -5 -6 6 -1 11 2 17 5 13 3 -3 4 -12 1 -19z m-17 -55 c-11
-17 -11 -17 -6 0 3 10 6 24 7 30 0 9 2 9 5 0 3 -7 0 -20 -6 -30z m-19 -50
c-12 -20 -14 -14 -5 12 4 9 9 14 11 11 3 -2 0 -13 -6 -23z m-42 -83 c-13 -22
-31 -48 -41 -57 -10 -9 -2 9 19 40 43 66 54 74 22 17z m-59 -83 c0 -1 -39 -41
-87 -87 l-88 -85 85 88 c79 81 90 92 90 84z m-196 -188 c-10 -12 -32 -30 -49
-41 -17 -12 -11 -4 15 20 49 45 64 54 34 21z m-89 -68 c-3 -5 -24 -24 -48 -41
l-42 -32 45 41 c46 41 56 48 45 32z m-95 -74 c0 -2 -12 -14 -27 -28 l-28 -24
24 28 c23 25 31 32 31 24z m-60 -50 c0 -2 -10 -12 -22 -23 l-23 -19 19 23 c18
21 26 27 26 19z m-100 -92 c-24 -24 -45 -43 -48 -41 -3 4 79 85 88 86 2 0 -16
-20 -40 -45z m-100 -102 c-23 -27 -53 -67 -67 -90 -32 -55 -42 -56 -11 -1 22
39 104 138 115 138 2 0 -14 -21 -37 -47z m-109 -170 c-12 -20 -14 -14 -5 12 4
9 9 14 11 11 3 -2 0 -13 -6 -23z m-24 -75 c-3 -8 -6 -5 -6 6 -1 11 2 17 5 13
3 -3 4 -12 1 -19z m-10 -110 c-3 -7 -5 -2 -5 12 0 14 2 19 5 13 2 -7 2 -19 0
-25z m10 -80 c-3 -8 -6 -5 -6 6 -1 11 2 17 5 13 3 -3 4 -12 1 -19z m49 -105
c-5 -5 -46 71 -46 84 0 4 12 -12 25 -36 14 -24 23 -46 21 -48z m40 -50 c23
-31 24 -34 5 -18 -22 19 -46 55 -38 55 3 0 17 -17 33 -37z m84 -100 c0 -4 -11
4 -25 17 -14 13 -25 28 -25 33 0 6 11 -2 25 -17 14 -15 25 -30 25 -33z m113
-118 c36 -47 21 -33 -54 50 -35 39 -40 48 -15 25 21 -19 52 -53 69 -75z m48
-62 c13 -16 12 -17 -3 -4 -10 7 -18 15 -18 17 0 8 8 3 21 -13z m44 -74 c9 -17
15 -33 13 -35 -3 -2 -12 12 -21 31 -21 43 -13 47 8 4z m22 -81 c-3 -8 -6 -5
-6 6 -1 11 2 17 5 13 3 -3 4 -12 1 -19z m10 -115 c-2 -16 -4 -5 -4 22 0 28 2
40 4 28 2 -13 2 -35 0 -50z m-10 -65 c-3 -8 -6 -5 -6 6 -1 11 2 17 5 13 3 -3
4 -12 1 -19z m-17 -55 c-11 -17 -11 -17 -6 0 3 10 6 24 7 30 0 9 2 9 5 0 3 -7
0 -20 -6 -30z m-47 -94 c-42 -74 -220 -244 -318 -304 -45 -28 -19 -5 60 52 79
58 198 177 240 241 32 49 44 56 18 11z m-353 -324 c0 -11 -200 -128 -207 -121
-3 3 21 18 53 35 33 17 79 44 104 60 50 33 50 33 50 26z m-234 -140 c-11 -8
-25 -15 -30 -15 -6 1 0 7 14 15 32 19 40 18 16 0z m-126 -59 c-25 -13 -56 -26
-70 -30 -14 -4 2 7 35 23 71 35 100 40 35 7z m-140 -56 c-8 -5 -19 -10 -25
-10 -5 0 -3 5 5 10 8 5 20 10 25 10 6 0 3 -5 -5 -10z m-70 -24 c0 -2 -7 -7
-16 -10 -8 -3 -12 -2 -9 4 6 10 25 14 25 6z m-147 -53 c-7 -2 -19 -2 -25 0 -7
3 -2 5 12 5 14 0 19 -2 13 -5z"/>
</g>
</svg>
